<svg id="visual" viewBox="0 0 900 600" width="900" height="600" xmlns="http://www.w3.org/2000/svg" xmlns:xlink="http://www.w3.org/1999/xlink" version="1.1"><rect x="0" y="0" width="900" height="600" fill="#f1f1f1"></rect><defs><linearGradient id="grad1_0" x1="33.3%" y1="0%" x2="100%" y2="100%"><stop offset="20%" stop-color="#306176" stop-opacity="1"></stop><stop offset="80%" stop-color="#306176" stop-opacity="1"></stop></linearGradient></defs><defs><linearGradient id="grad1_1" x1="33.3%" y1="0%" x2="100%" y2="100%"><stop offset="20%" stop-color="#306176" stop-opacity="1"></stop><stop offset="80%" stop-color="#f1f1f1" stop-opacity="1"></stop></linearGradient></defs><defs><linearGradient id="grad2_0" x1="0%" y1="0%" x2="66.7%" y2="100%"><stop offset="20%" stop-color="#306176" stop-opacity="1"></stop><stop offset="80%" stop-color="#306176" stop-opacity="1"></stop></linearGradient></defs><defs><linearGradient id="grad2_1" x1="0%" y1="0%" x2="66.7%" y2="100%"><stop offset="20%" stop-color="#f1f1f1" stop-opacity="1"></stop><stop offset="80%" stop-color="#306176" stop-opacity="1"></stop></linearGradient></defs><g transform="translate(900, 0)"><path d="M0 216.3C-14.3 220.3 -28.7 224.3 -37.3 211.7C-46 199.2 -49 170.1 -59.5 163.5C-70 156.9 -88.1 172.7 -100 173.2C-111.9 173.7 -117.6 159 -124.7 148.6C-131.8 138.2 -140.1 132.1 -149.4 125.3C-158.6 118.6 -168.8 111.1 -176.7 102C-184.5 92.9 -190.1 82.3 -196.4 71.5C-202.7 60.6 -209.6 49.5 -213 37.6C-216.5 25.6 -216.4 12.8 -216.3 0L0 0Z" fill="#91a6b2"></path><path d="M0 108.2C-7.2 110.2 -14.3 112.1 -18.7 105.9C-23 99.6 -24.5 85.1 -29.8 81.8C-35 78.4 -44 86.3 -50 86.6C-56 86.9 -58.8 79.5 -62.4 74.3C-65.9 69.1 -70.1 66.1 -74.7 62.7C-79.3 59.3 -84.4 55.5 -88.3 51C-92.3 46.5 -95.1 41.2 -98.2 35.7C-101.3 30.3 -104.8 24.8 -106.5 18.8C-108.2 12.8 -108.2 6.4 -108.2 0L0 0Z" fill="#306176"></path></g><g transform="translate(0, 600)"><path d="M0 -216.3C10.7 -205.9 21.5 -195.6 34.4 -195C47.3 -194.4 62.3 -203.7 72.5 -199.2C82.7 -194.7 88 -176.5 96 -166.3C104 -156.1 114.7 -153.8 126 -150.1C137.3 -146.5 149.2 -141.3 158.6 -133.1C168 -124.8 174.9 -113.5 174.1 -100.5C173.2 -87.5 164.5 -72.7 172 -62.6C179.4 -52.5 203 -47.2 213 -37.6C223.1 -27.9 219.7 -14 216.3 0L0 0Z" fill="#91a6b2"></path><path d="M0 -108.2C5.4 -103 10.7 -97.8 17.2 -97.5C23.6 -97.2 31.2 -101.8 36.3 -99.6C41.3 -97.4 44 -88.3 48 -83.1C52 -78 57.3 -76.9 63 -75.1C68.6 -73.2 74.6 -70.6 79.3 -66.5C84 -62.4 87.5 -56.8 87 -50.3C86.6 -43.7 82.3 -36.3 86 -31.3C89.7 -26.3 101.5 -23.6 106.5 -18.8C111.6 -14 109.9 -7 108.2 0L0 0Z" fill="#306176"></path></g></svg>