<svg id="visual" viewBox="0 0 900 600" width="900" height="600" xmlns="http://www.w3.org/2000/svg" xmlns:xlink="http://www.w3.org/1999/xlink" version="1.1"><rect x="0" y="0" width="900" height="600" fill="#ffffff"></rect><defs><linearGradient id="grad1_0" x1="33.3%" y1="0%" x2="100%" y2="100%"><stop offset="20%" stop-color="#ffffff" stop-opacity="1"></stop><stop offset="80%" stop-color="#ffffff" stop-opacity="1"></stop></linearGradient></defs><defs><linearGradient id="grad2_0" x1="0%" y1="0%" x2="66.7%" y2="100%"><stop offset="20%" stop-color="#ffffff" stop-opacity="1"></stop><stop offset="80%" stop-color="#ffffff" stop-opacity="1"></stop></linearGradient></defs><g transform="translate(900, 0)"><path d="M0 189.3C-24.2 185.2 -48.3 181.2 -71.6 172.8C-94.8 164.3 -117.1 151.6 -133.8 133.8C-150.6 116.1 -161.7 93.5 -170 70.4C-178.3 47.3 -183.8 23.6 -189.3 0L0 0Z" fill="#38ACEC"></path></g><g transform="translate(0, 600)"><path d="M0 -189.3C24 -184.1 47.9 -178.8 70.4 -170C92.9 -161.2 114 -148.7 132.2 -132.2C150.5 -115.7 165.8 -95.2 174.9 -72.4C183.9 -49.7 186.6 -24.9 189.3 0L0 0Z" fill="#38ACEC"></path></g></svg>